<?xml version="1.0" encoding="UTF-8" standalone="no"?>
<!-- Created with Inkscape (http://www.inkscape.org/) -->

<svg
   version="1.1"
   id="svg1"
   width="256"
   height="256"
   viewBox="0 0 256 256"
   sodipodi:docname="fred-icon.svg"
   inkscape:version="1.4 (86a8ad7, 2024-10-11)"
   inkscape:export-filename="fred-icon-16.png"
   inkscape:export-xdpi="6"
   inkscape:export-ydpi="6"
   xmlns:inkscape="http://www.inkscape.org/namespaces/inkscape"
   xmlns:sodipodi="http://sodipodi.sourceforge.net/DTD/sodipodi-0.dtd"
   xmlns="http://www.w3.org/2000/svg"
   xmlns:svg="http://www.w3.org/2000/svg">
  <defs
     id="defs1">
    <inkscape:path-effect
       effect="mirror_symmetry"
       start_point="128.38505,64.8125"
       end_point="128.38505,84.94396"
       center_point="128.38505,74.87823"
       id="path-effect5"
       is_visible="true"
       lpeversion="1.2"
       lpesatellites=""
       mode="free"
       discard_orig_path="false"
       fuse_paths="true"
       oposite_fuse="false"
       split_items="false"
       split_open="false"
       link_styles="false" />
    <inkscape:path-effect
       effect="mirror_symmetry"
       start_point="128.03052,41.375"
       end_point="128.03052,64.435105"
       center_point="128.03052,52.905052"
       id="path-effect3"
       is_visible="true"
       lpeversion="1.2"
       lpesatellites=""
       mode="free"
       discard_orig_path="false"
       fuse_paths="true"
       oposite_fuse="false"
       split_items="false"
       split_open="false"
       link_styles="false" />
    <inkscape:path-effect
       effect="mirror_symmetry"
       start_point="128.25007,44.021121"
       end_point="128.25007,51.984177"
       center_point="128.25007,48.002649"
       id="path-effect2"
       is_visible="true"
       lpeversion="1.2"
       lpesatellites=""
       mode="free"
       discard_orig_path="false"
       fuse_paths="true"
       oposite_fuse="false"
       split_items="false"
       split_open="false"
       link_styles="false" />
    <inkscape:path-effect
       effect="mirror_symmetry"
       start_point="128.12306,29.81908"
       end_point="128.12306,239.50424"
       center_point="128.12306,134.66166"
       id="path-effect1"
       is_visible="true"
       lpeversion="1.2"
       lpesatellites=""
       mode="free"
       discard_orig_path="false"
       fuse_paths="true"
       oposite_fuse="false"
       split_items="false"
       split_open="false"
       link_styles="false" />
  </defs>
  <sodipodi:namedview
     id="namedview1"
     pagecolor="#ffffff"
     bordercolor="#000000"
     borderopacity="0.25"
     inkscape:showpageshadow="2"
     inkscape:pageopacity="0.0"
     inkscape:pagecheckerboard="0"
     inkscape:deskcolor="#d1d1d1"
     inkscape:zoom="2.8284271"
     inkscape:cx="105.88924"
     inkscape:cy="122.8598"
     inkscape:window-width="1920"
     inkscape:window-height="1009"
     inkscape:window-x="-8"
     inkscape:window-y="-8"
     inkscape:window-maximized="1"
     inkscape:current-layer="svg1" />
  <g
     inkscape:groupmode="layer"
     id="layer1"
     inkscape:label="Image 1">
    <path
       d="m 72.960937,28.550781 c 0,0 -42.348781,-0.158454 -49.486328,49.169922 V 221.10547 c 0,0 -0.634366,2.85519 6.027344,5.23437 h 35.210938 v 8.24805 c 0,0 1.111889,3.64658 5.533203,3.64648 H 128.12305 186 c 4.42131,10e-5 5.5332,-3.64648 5.5332,-3.64648 v -8.24805 h 35.21094 c 6.66171,-2.37918 6.02734,-5.23437 6.02734,-5.23437 V 77.720703 C 225.63394,28.392327 183.28516,28.550781 183.28516,28.550781 h -32.99219 c -3.64811,1.258878 -4.80206,4.256416 -4.96289,8.521485 -1.23793,3.715203 -5.19424,3.476494 -8.64258,3.976562 h -8.56445 -8.56446 c -3.44834,-0.500068 -7.40464,-0.261359 -8.64257,-3.976562 -0.16083,-4.265069 -1.31478,-7.262607 -4.96289,-8.521485 z M 70.603516,41.375 h 29.625004 c 4.18418,16.113569 16.5859,20.901597 23.4375,22.363281 l 4.35156,0.673828 c 0.0959,0.0043 0.36719,0.02344 0.36719,0.02344 0,0 0.27128,-0.01917 0.36718,-0.02344 l 4.34766,-0.673828 c 6.8511,-1.461089 19.2548,-6.247917 23.43945,-22.363281 h 29.625 c 0,0 26.875,2.5 33.375,33.625 V 213.28125 H 191.80273 V 96.078125 c 0,0 -5.21512,-7.866563 -11.75586,0 V 225.125 H 128.38477 76.720703 V 96.078125 c -6.540738,-7.866563 -11.755859,0 -11.755859,0 V 213.28125 H 37.228516 V 75 c 6.5,-31.125 33.375,-33.625 33.375,-33.625 z m 44.957034,2.984375 c 1.23821,-0.248202 1.23958,1.175781 2.03515,1.175781 h 10.6543 10.6543 c 0.79557,0 0.79694,-1.423983 2.03515,-1.175781 2.65763,2.752263 -2.68846,7.480469 -7.12304,7.480469 H 128.25 122.68359 c -4.43458,0 -9.78067,-4.728206 -7.12304,-7.480469 z"
       style="display:inline;fill:#f3cc75;stroke:#f3cc75;fill-opacity:1;stroke-opacity:1"
       id="path6" />
    <path
       d="m 115.60474,45.420035 c -2.65763,2.752263 2.64427,6.419809 7.07885,6.419809 h 5.56641 5.56641 c 4.43458,0 10.00164,-3.623352 7.34401,-6.375615 -1.23821,-0.248202 -1.46055,0.07093 -2.25612,0.07093 H 128.25 117.5957 c -0.79557,0 -0.75275,-0.363323 -1.99096,-0.115121 z"
       style="display:inline;fill:#822929;fill-opacity:1;stroke:#822929;stroke-opacity:1"
       id="path9"
       sodipodi:nodetypes="cscscscsc" />
    <path
       d="m 70.603516,41.375 c 0,0 -26.875,2.5 -33.375,33.625 V 213.28125 H 64.964844 V 96.078125 c 0,0 5.215121,-7.866563 11.755859,0 V 225.125 h 51.664067 51.6621 V 96.078125 c 6.54074,-7.866563 11.75586,0 11.75586,0 V 213.28125 h 27.73633 V 75 c -6.5,-31.125 -33.375,-33.625 -33.375,-33.625 h -29.625 c -4.18465,16.115364 -16.58835,20.902192 -23.43945,22.363281 L 134.64453,63.5 c 3.24209,2.30208 5.00864,5.180857 4.99414,8.650391 -0.0178,4.258499 0.55363,8.670405 -6.6289,11.480468 5.96813,7.571723 11.13867,17.159911 10.85742,40.519531 -0.85894,15.55791 -0.48166,31.64157 -14.22266,41.72461 0,0 -0.68239,0.23412 -1.25976,0.12891 -0.57737,0.10521 -1.25977,-0.12891 -1.25977,-0.12891 -13.741,-10.08304 -13.36372,-26.1667 -14.22266,-41.72461 -0.28125,-23.35962 4.8893,-32.947808 10.85743,-40.519531 -7.18253,-2.810063 -6.61111,-7.221969 -6.62891,-11.480468 -0.0145,-3.469534 1.75205,-6.348311 4.99414,-8.650391 l 1.54102,0.238281 C 116.81442,62.276597 104.4127,57.488569 100.22852,41.375 Z"
       style="display:inline;fill:#822929;stroke:#822929;fill-opacity:1;stroke-opacity:1"
       id="path7" />
  </g>
  <g
     inkscape:groupmode="layer"
     id="layer2"
     inkscape:label="Image 2"
     style="display:inline">
    <path
       d="M 123.19727,63.097656 122.125,63.5 c -3.24209,2.30208 -5.00864,5.180857 -4.99414,8.650391 0.0178,4.258499 -0.55362,8.670405 6.62891,11.480468 -5.96813,7.571723 -11.13868,17.159911 -10.85743,40.519531 0.85894,15.55791 0.48166,31.64157 14.22266,41.72461 0,0 0.6824,0.23412 1.25977,0.12891 0.57737,0.10521 1.25976,-0.12891 1.25976,-0.12891 13.741,-10.08304 13.36372,-26.1667 14.22266,-41.72461 0.28125,-23.35962 -4.88929,-32.947808 -10.85742,-40.519531 7.18253,-2.810063 6.6111,-7.221969 6.6289,-11.480468 0.0145,-3.469534 -1.75205,-6.348311 -4.99414,-8.650391 l -1.48242,-0.355469 c -2.31174,0.493009 -3.92363,1.245934 -4.41016,1.267578 l -0.36718,0.05664 -0.36719,-0.05664 c -0.48669,-0.02165 -2.50739,-0.821026 -4.82031,-1.314453 z"
       style="display:inline;fill:#07093d;fill-opacity:1;stroke:none"
       id="path14"
       sodipodi:nodetypes="ccscccccccscccccc" />
    <path
       style="fill:#d4b16c;fill-opacity:1;stroke:none;stroke-opacity:1"
       d="m 118.99219,90.808594 24.04128,17.617856 c 0.14417,0.77 0.32638,2.60552 0.52936,5.0221 L 117.57031,93.740569 c 0.43665,-0.934686 0.79431,-1.779092 1.42188,-2.931975 z"
       id="path10"
       sodipodi:nodetypes="ccccc" />
    <path
       style="fill:#d4b16c;fill-opacity:1;stroke:none;stroke-opacity:1"
       d="M 143.80145,117.625 116.45754,96.580806 c -0.4661,1.319444 -0.88483,2.649415 -1.21859,3.998264 l 28.62879,21.19303 c 0.002,-1.37042 -0.01,-2.74743 -0.0663,-4.1471 z"
       id="path11"
       sodipodi:nodetypes="cccccc" />
    <path
       style="fill:#d4b16c;fill-opacity:1;stroke:none;stroke-opacity:1"
       d="m 142.88605,139.25 -29.88226,-22.40988 c -0.062,1.62775 -0.11881,3.25447 -0.10843,4.86775 l 29.56424,20.86015 c 0.16945,-1.09918 0.31586,-2.20412 0.42645,-3.31802 z"
       id="path12"
       sodipodi:nodetypes="ccccc" />
    <path
       style="fill:#d4b16c;fill-opacity:1;stroke:none;stroke-opacity:1"
       d="m 141.61774,146.89253 -28.71165,-22.70882 0.25,5.00931 27.66573,20.6471 c 0.3539,-1.1105 0.57051,-2.02269 0.79592,-2.94759 z"
       id="path13"
       sodipodi:nodetypes="ccccc" />
    <path
       d="M 123.66602,63.738281 122.125,63.5 c -3.24209,2.30208 -5.00864,5.180857 -4.99414,8.650391 0.0178,4.258499 -0.55362,8.670405 6.62891,11.480468 -5.96813,7.571723 -11.13868,17.159911 -10.85743,40.519531 0.85894,15.55791 0.48166,31.64157 14.22266,41.72461 0,0 0.6824,0.23412 1.25977,0.12891 0.57737,0.10521 1.25976,-0.12891 1.25976,-0.12891 13.741,-10.08304 13.36372,-26.1667 14.22266,-41.72461 0.28125,-23.35962 -4.88929,-32.947808 -10.85742,-40.519531 7.18253,-2.810063 6.6111,-7.221969 6.6289,-11.480468 0.0145,-3.469534 -1.75205,-6.348311 -4.99414,-8.650391 l -1.54492,0.238281 c -2.31174,0.493009 -3.86113,0.652184 -4.34766,0.673828 l -0.36718,0.05664 -0.36719,-0.05664 c -0.48669,-0.02165 -2.03864,-0.180401 -4.35156,-0.673828 z"
       style="display:inline;fill:none;stroke:none;stroke-opacity:1"
       id="path8" />
  </g>
</svg>
