<?xml version="1.0" encoding="UTF-8" standalone="no"?>
<!-- Created with Inkscape (http://www.inkscape.org/) -->

<svg
   width="236.64313mm"
   height="236.64313mm"
   viewBox="0 0 236.64313 236.64313"
   version="1.1"
   id="svg1"
   xml:space="preserve"
   inkscape:version="1.4 (86a8ad7, 2024-10-11)"
   sodipodi:docname="fred-logo.new.svg"
   inkscape:export-filename="fred-logo-2.png"
   inkscape:export-xdpi="96"
   inkscape:export-ydpi="96"
   xmlns:inkscape="http://www.inkscape.org/namespaces/inkscape"
   xmlns:sodipodi="http://sodipodi.sourceforge.net/DTD/sodipodi-0.dtd"
   xmlns="http://www.w3.org/2000/svg"
   xmlns:svg="http://www.w3.org/2000/svg"><sodipodi:namedview
     id="namedview1"
     pagecolor="#ffffff"
     bordercolor="#000000"
     borderopacity="0.25"
     inkscape:showpageshadow="2"
     inkscape:pageopacity="0.0"
     inkscape:pagecheckerboard="0"
     inkscape:deskcolor="#d1d1d1"
     inkscape:document-units="mm"
     inkscape:zoom="0.71891835"
     inkscape:cx="393.64693"
     inkscape:cy="452.76352"
     inkscape:window-width="1920"
     inkscape:window-height="1009"
     inkscape:window-x="-8"
     inkscape:window-y="-8"
     inkscape:window-maximized="1"
     inkscape:current-layer="svg1" /><defs
     id="defs1"><inkscape:path-effect
       effect="mirror_symmetry"
       start_point="128.38505,64.8125"
       end_point="128.38505,84.94396"
       center_point="128.38505,74.87823"
       id="path-effect5"
       is_visible="true"
       lpeversion="1.2"
       lpesatellites=""
       mode="free"
       discard_orig_path="false"
       fuse_paths="true"
       oposite_fuse="false"
       split_items="false"
       split_open="false"
       link_styles="false" /><inkscape:path-effect
       effect="mirror_symmetry"
       start_point="128.03052,41.375"
       end_point="128.03052,64.435105"
       center_point="128.03052,52.905052"
       id="path-effect3"
       is_visible="true"
       lpeversion="1.2"
       lpesatellites=""
       mode="free"
       discard_orig_path="false"
       fuse_paths="true"
       oposite_fuse="false"
       split_items="false"
       split_open="false"
       link_styles="false" /><inkscape:path-effect
       effect="mirror_symmetry"
       start_point="128.25007,44.021121"
       end_point="128.25007,51.984177"
       center_point="128.25007,48.002649"
       id="path-effect2"
       is_visible="true"
       lpeversion="1.2"
       lpesatellites=""
       mode="free"
       discard_orig_path="false"
       fuse_paths="true"
       oposite_fuse="false"
       split_items="false"
       split_open="false"
       link_styles="false" /><inkscape:path-effect
       effect="mirror_symmetry"
       start_point="128.12306,29.81908"
       end_point="128.12306,239.50424"
       center_point="128.12306,134.66166"
       id="path-effect1"
       is_visible="true"
       lpeversion="1.2"
       lpesatellites=""
       mode="free"
       discard_orig_path="false"
       fuse_paths="true"
       oposite_fuse="false"
       split_items="false"
       split_open="false"
       link_styles="false" /></defs><g
     inkscape:groupmode="layer"
     id="layer3"
     inkscape:label="Layer 2"
     transform="translate(15.825287,84.278816)"><circle
       style="font-variation-settings:'wght' 700;fill:#822929;fill-opacity:1;stroke-width:0.360438"
       id="path2"
       cx="102.49628"
       cy="34.042747"
       r="118.32156" /></g><g
     inkscape:label="Layer 1"
     inkscape:groupmode="layer"
     id="layer1"
     transform="translate(-0.84643313,-26.677604)" /><g
     id="g2"
     transform="matrix(0.26458333,0,0,0.26458333,9.7502125,77.227683)"><g
       id="layer1-5"
       inkscape:label="Image 1"><path
         d="m 72.960937,28.550781 c 0,0 -42.348781,-0.158454 -49.486328,49.169922 V 221.10547 c 0,0 -0.634366,2.85519 6.027344,5.23437 h 35.210938 v 8.24805 c 0,0 1.111889,3.64658 5.533203,3.64648 H 128.12305 186 c 4.42131,10e-5 5.5332,-3.64648 5.5332,-3.64648 v -8.24805 h 35.21094 c 6.66171,-2.37918 6.02734,-5.23437 6.02734,-5.23437 V 77.720703 C 225.63394,28.392327 183.28516,28.550781 183.28516,28.550781 h -32.99219 c -3.64811,1.258878 -4.80206,4.256416 -4.96289,8.521485 -1.23793,3.715203 -5.19424,3.476494 -8.64258,3.976562 h -8.56445 -8.56446 c -3.44834,-0.500068 -7.40464,-0.261359 -8.64257,-3.976562 -0.16083,-4.265069 -1.31478,-7.262607 -4.96289,-8.521485 z M 70.603516,41.375 h 29.625004 c 4.18418,16.113569 16.5859,20.901597 23.4375,22.363281 l 4.35156,0.673828 c 0.0959,0.0043 0.36719,0.02344 0.36719,0.02344 0,0 0.27128,-0.01917 0.36718,-0.02344 l 4.34766,-0.673828 c 6.8511,-1.461089 19.2548,-6.247917 23.43945,-22.363281 h 29.625 c 0,0 26.875,2.5 33.375,33.625 V 213.28125 H 191.80273 V 96.078125 c 0,0 -5.21512,-7.866563 -11.75586,0 V 225.125 H 128.38477 76.720703 V 96.078125 c -6.540738,-7.866563 -11.755859,0 -11.755859,0 V 213.28125 H 37.228516 V 75 c 6.5,-31.125 33.375,-33.625 33.375,-33.625 z m 44.957034,2.984375 c 1.23821,-0.248202 1.23958,1.175781 2.03515,1.175781 h 10.6543 10.6543 c 0.79557,0 0.79694,-1.423983 2.03515,-1.175781 2.65763,2.752263 -2.68846,7.480469 -7.12304,7.480469 H 128.25 122.68359 c -4.43458,0 -9.78067,-4.728206 -7.12304,-7.480469 z"
         style="display:inline;fill:#f3cc75;fill-opacity:1;stroke:#f3cc75;stroke-opacity:1"
         id="path6" /><path
         d="m 115.60474,45.420035 c -2.65763,2.752263 2.64427,6.419809 7.07885,6.419809 h 5.56641 5.56641 c 4.43458,0 10.00164,-3.623352 7.34401,-6.375615 -1.23821,-0.248202 -1.46055,0.07093 -2.25612,0.07093 H 128.25 117.5957 c -0.79557,0 -0.75275,-0.363323 -1.99096,-0.115121 z"
         style="display:inline;fill:#822929;fill-opacity:1;stroke:#822929;stroke-opacity:1"
         id="path9"
         sodipodi:nodetypes="cscscscsc" /><path
         d="m 70.603516,41.375 c 0,0 -26.875,2.5 -33.375,33.625 V 213.28125 H 64.964844 V 96.078125 c 0,0 5.215121,-7.866563 11.755859,0 V 225.125 h 51.664067 51.6621 V 96.078125 c 6.54074,-7.866563 11.75586,0 11.75586,0 V 213.28125 h 27.73633 V 75 c -6.5,-31.125 -33.375,-33.625 -33.375,-33.625 h -29.625 c -4.18465,16.115364 -16.58835,20.902192 -23.43945,22.363281 L 134.64453,63.5 c 3.24209,2.30208 5.00864,5.180857 4.99414,8.650391 -0.0178,4.258499 0.55363,8.670405 -6.6289,11.480468 5.96813,7.571723 11.13867,17.159911 10.85742,40.519531 -0.85894,15.55791 -0.48166,31.64157 -14.22266,41.72461 0,0 -0.68239,0.23412 -1.25976,0.12891 -0.57737,0.10521 -1.25977,-0.12891 -1.25977,-0.12891 -13.741,-10.08304 -13.36372,-26.1667 -14.22266,-41.72461 -0.28125,-23.35962 4.8893,-32.947808 10.85743,-40.519531 -7.18253,-2.810063 -6.61111,-7.221969 -6.62891,-11.480468 -0.0145,-3.469534 1.75205,-6.348311 4.99414,-8.650391 l 1.54102,0.238281 C 116.81442,62.276597 104.4127,57.488569 100.22852,41.375 Z"
         style="display:inline;fill:#822929;fill-opacity:1;stroke:#822929;stroke-opacity:1"
         id="path7" /></g><g
       id="layer2"
       inkscape:label="Image 2"
       style="display:inline"><path
         d="M 123.19727,63.097656 122.125,63.5 c -3.24209,2.30208 -5.00864,5.180857 -4.99414,8.650391 0.0178,4.258499 -0.55362,8.670405 6.62891,11.480468 -5.96813,7.571723 -11.13868,17.159911 -10.85743,40.519531 0.85894,15.55791 0.48166,31.64157 14.22266,41.72461 0,0 0.6824,0.23412 1.25977,0.12891 0.57737,0.10521 1.25976,-0.12891 1.25976,-0.12891 13.741,-10.08304 13.36372,-26.1667 14.22266,-41.72461 0.28125,-23.35962 -4.88929,-32.947808 -10.85742,-40.519531 7.18253,-2.810063 6.6111,-7.221969 6.6289,-11.480468 0.0145,-3.469534 -1.75205,-6.348311 -4.99414,-8.650391 l -1.48242,-0.355469 c -2.31174,0.493009 -3.92363,1.245934 -4.41016,1.267578 l -0.36718,0.05664 -0.36719,-0.05664 c -0.48669,-0.02165 -2.50739,-0.821026 -4.82031,-1.314453 z"
         style="display:inline;fill:#07093d;fill-opacity:1;stroke:none"
         id="path14"
         sodipodi:nodetypes="ccscccccccscccccc" /><path
         style="fill:#d4b16c;fill-opacity:1;stroke:none;stroke-opacity:1"
         d="m 118.99219,90.808594 24.04128,17.617856 c 0.14417,0.77 0.32638,2.60552 0.52936,5.0221 L 117.57031,93.740569 c 0.43665,-0.934686 0.79431,-1.779092 1.42188,-2.931975 z"
         id="path10"
         sodipodi:nodetypes="ccccc" /><path
         style="fill:#d4b16c;fill-opacity:1;stroke:none;stroke-opacity:1"
         d="M 143.80145,117.625 116.45754,96.580806 c -0.4661,1.319444 -0.88483,2.649415 -1.21859,3.998264 l 28.62879,21.19303 c 0.002,-1.37042 -0.01,-2.74743 -0.0663,-4.1471 z"
         id="path11"
         sodipodi:nodetypes="cccccc" /><path
         style="fill:#d4b16c;fill-opacity:1;stroke:none;stroke-opacity:1"
         d="m 142.88605,139.25 -29.88226,-22.40988 c -0.062,1.62775 -0.11881,3.25447 -0.10843,4.86775 l 29.56424,20.86015 c 0.16945,-1.09918 0.31586,-2.20412 0.42645,-3.31802 z"
         id="path12"
         sodipodi:nodetypes="ccccc" /><path
         style="fill:#d4b16c;fill-opacity:1;stroke:none;stroke-opacity:1"
         d="m 141.61774,146.89253 -28.71165,-22.70882 0.25,5.00931 27.66573,20.6471 c 0.3539,-1.1105 0.57051,-2.02269 0.79592,-2.94759 z"
         id="path13"
         sodipodi:nodetypes="ccccc" /><path
         d="M 123.66602,63.738281 122.125,63.5 c -3.24209,2.30208 -5.00864,5.180857 -4.99414,8.650391 0.0178,4.258499 -0.55362,8.670405 6.62891,11.480468 -5.96813,7.571723 -11.13868,17.159911 -10.85743,40.519531 0.85894,15.55791 0.48166,31.64157 14.22266,41.72461 0,0 0.6824,0.23412 1.25977,0.12891 0.57737,0.10521 1.25976,-0.12891 1.25976,-0.12891 13.741,-10.08304 13.36372,-26.1667 14.22266,-41.72461 0.28125,-23.35962 -4.88929,-32.947808 -10.85742,-40.519531 7.18253,-2.810063 6.6111,-7.221969 6.6289,-11.480468 0.0145,-3.469534 -1.75205,-6.348311 -4.99414,-8.650391 l -1.54492,0.238281 c -2.31174,0.493009 -3.86113,0.652184 -4.34766,0.673828 l -0.36718,0.05664 -0.36719,-0.05664 c -0.48669,-0.02165 -2.03864,-0.180401 -4.35156,-0.673828 z"
         style="display:inline;fill:none;stroke:none;stroke-opacity:1"
         id="path8" /></g></g><path
     d="M 86.888271,103.79791 H 102.3664 q 0.39687,0.635 0.79375,1.82562 0.39687,1.19063 0.39687,2.61938 0,2.38125 -1.11125,3.4925 -1.03187,1.11125 -2.936874,1.11125 H 86.888271 Z m 1.74625,7.62 h -11.1125 v -11.19188 q 0,-5.238749 2.2225,-8.493124 2.2225,-3.254375 6.0325,-4.7625 3.81,-1.5875 8.493125,-1.5875 5.55625,0 8.255004,1.508125 2.77812,1.42875 2.77812,4.683125 0,1.349375 -0.635,2.54 -0.55562,1.11125 -1.34937,1.74625 -1.42875,-0.47625 -3.25438,-0.79375 -1.746249,-0.396875 -3.809999,-0.396875 -3.81,0 -5.715,1.349375 -1.905,1.349375 -1.905,4.603754 z m 0.555625,-2.38125 v 30.00375 q -0.714375,0.15875 -2.143125,0.39687 -1.42875,0.23813 -3.095625,0.23813 -3.33375,0 -4.92125,-1.19063 -1.508125,-1.19062 -1.508125,-4.28625 v -25.16187 z m 31.373064,12.14437 h -11.66813 v -11.35062 q 0,-2.2225 1.03188,-3.73063 1.11125,-1.5875 3.01625,-2.77812 2.61937,-1.5875 6.27062,-2.46063 3.73063,-0.952499 7.77875,-0.952499 8.09625,0 8.09625,5.397499 0,1.27 -0.39687,2.38125 -0.3175,1.03188 -0.87313,1.82563 -0.79375,-0.15875 -1.98437,-0.23813 -1.11125,-0.0794 -2.38125,-0.0794 -2.46063,0 -4.84188,0.55562 -2.30187,0.47625 -4.04812,1.50813 z m 0,-2.77812 v 20.6375 q -0.71438,0.15875 -2.14313,0.39687 -1.42875,0.23813 -3.09562,0.23813 -3.33375,0 -4.92125,-1.19063 -1.50813,-1.19062 -1.50813,-4.28625 v -16.03375 z m 24.07039,-0.71438 19.76437,-3.09562 q -0.23812,-2.30188 -1.98437,-4.1275 -1.74625,-1.905 -5.15938,-1.905 -3.65125,0 -6.0325,2.46062 -2.38125,2.38125 -2.46062,6.90563 l 0.3175,5.3975 q 0.79375,4.36562 3.81,6.27062 3.01625,1.82563 7.14375,1.82563 3.33375,0 6.27062,-0.87313 2.93688,-0.9525 4.7625,-2.06375 1.11125,0.71438 1.905,1.98438 0.79375,1.27 0.79375,2.69875 0,2.38125 -1.905,3.96875 -1.82562,1.5875 -5.15937,2.38125 -3.25438,0.79375 -7.46125,0.79375 -6.11188,0 -10.95375,-2.30188 -4.84188,-2.30187 -7.62,-6.90562 -2.77813,-4.60375 -2.77813,-11.50938 0,-5.08 1.5875,-8.81062 1.5875,-3.73063 4.28625,-6.11188 2.77813,-2.46062 6.19125,-3.65125 3.4925,-1.190624 7.22313,-1.190624 5.47687,0 9.525,2.222504 4.1275,2.14312 6.42937,5.87375 2.30188,3.73062 2.30188,8.65187 0,2.46063 -1.34938,3.73063 -1.34937,1.19062 -3.73062,1.5875 l -25.24125,3.73062 z m 62.7856,-11.90625 h 11.66813 v 25.47938 q 0,1.82562 -0.79375,3.175 -0.79375,1.27 -2.54,2.30187 -2.14313,1.42875 -5.63563,2.46063 -3.41312,1.11125 -7.9375,1.11125 -6.58812,0 -11.35062,-2.2225 -4.7625,-2.2225 -7.38188,-6.6675 -2.54,-4.52438 -2.54,-11.19188 0,-6.985 2.61938,-11.43 2.61937,-4.52437 7.14375,-6.74687 4.52437,-2.222504 10.00125,-2.222504 2.8575,0 5.08,0.635004 2.30187,0.635 3.65125,1.50812 v 9.68375 q -1.11125,-0.9525 -2.93688,-1.74625 -1.82562,-0.79375 -4.20687,-0.79375 -2.8575,0 -5.00063,1.19063 -2.14312,1.11125 -3.33375,3.57187 -1.19062,2.46063 -1.19062,6.35 0,5.55625 2.46062,8.17563 2.54,2.61937 6.90563,2.61937 1.82562,0 3.09562,-0.39687 1.34938,-0.39688 2.2225,-0.87313 z m -0.0794,2.30188 V 87.446656 q 0.79375,-0.238125 2.2225,-0.47625 1.42875,-0.238125 3.01625,-0.238125 3.41312,0 4.92125,1.190625 1.5875,1.11125 1.5875,4.28625 v 15.875004 z"
     id="text2"
     style="font-size:79.375px;font-family:'Baloo Da 2';-inkscape-font-specification:'Baloo Da 2, @wght=700';font-variation-settings:'wght' 700;fill:#f3cc75;stroke-width:0.264583"
     aria-label="fred" /></svg>
